<?xml version="1.0" encoding="utf-8" ?>
<svg baseProfile="full" height="3010.0px" version="1.1" width="9150.0px" xmlns="http://www.w3.org/2000/svg" xmlns:ev="http://www.w3.org/2001/xml-events" xmlns:xlink="http://www.w3.org/1999/xlink"><defs /><polyline fill="none" points="0.0,0.0 9050.0,0.0 9050.0,2700.0 0.0,2700.0 0.0,0.0" stroke="#222222" stroke-width="0.5" /><polyline fill="none" points="0.0,0.0 350.0,0.0 350.0,2700.0 0.0,2700.0 0.0,0.0" stroke="#555555" stroke-width="0.5" /><polyline fill="none" points="4350.0,0.0 4700.0,0.0 4700.0,2700.0 4350.0,2700.0 4350.0,0.0" stroke="#555555" stroke-width="0.5" /><polyline fill="none" points="8700.0,0.0 9050.0,0.0 9050.0,2700.0 8700.0,2700.0 8700.0,0.0" stroke="#555555" stroke-width="0.5" /><polyline fill="none" points="175.0,-210.0 175.0,2850.0" stroke="#1f77b4" stroke-width="0.5" /><text fill="#111111" font-size="120.0px" x="170.0" y="2910.0">E1</text><polyline fill="none" points="4525.0,-210.0 4525.0,2850.0" stroke="#1f77b4" stroke-width="0.5" /><text fill="#111111" font-size="120.0px" x="4520.0" y="2910.0">E2</text><polyline fill="none" points="8875.0,-210.0 8875.0,2850.0" stroke="#1f77b4" stroke-width="0.5" /><text fill="#111111" font-size="120.0px" x="8870.0" y="2910.0">E3</text><line stroke="#d62728" stroke-width="1.0" x1="100.0" x2="7400.0" y1="2380.0" y2="2380.0" /><polyline fill="none" points="100.0,2380.0 125.04249999999999,2340.0 171.55,2300.0" stroke="#d62728" stroke-width="1.0" /><text fill="#111111" font-size="120.0px" x="146.5075" y="2288.0">0.16</text><line stroke="#888" stroke-width="1" x1="800.0" x2="1200.0" y1="2310.0" y2="2310.0" /><text fill="#555" font-size="10px" x="1000.0" y="2305.0">0.40</text><text dominant-baseline="text-before-edge" fill="#111111" font-size="120.0px" text-anchor="middle" x="3750.0" y="2452.0">2Φ#5 L=7.50m</text><line stroke="#d62728" stroke-width="1.0" x1="500.0" x2="8500.0" y1="2290.0" y2="2290.0" /><text dominant-baseline="text-before-edge" fill="#111111" font-size="120.0px" text-anchor="middle" x="4500.0" y="2362.0">2Φ#5 L=7.50m</text><line stroke="#d62728" stroke-width="1.0" x1="200.0" x2="7200.0" y1="320.0" y2="320.0" /><polyline fill="none" points="200.0,320.0 225.0425,360.0 271.55,400.0" stroke="#d62728" stroke-width="1.0" /><text fill="#111111" font-size="120.0px" x="246.5075" y="412.0">0.16</text><line stroke="#888" stroke-width="1" x1="800.0" x2="1200.0" y1="390.0" y2="390.0" /><text fill="#555" font-size="10px" x="1000.0" y="385.0">0.40</text><text dominant-baseline="text-before-edge" fill="#111111" font-size="120.0px" text-anchor="middle" x="3700.0" y="212.0">2Φ#5 L=7.00m</text><polyline fill="none" points="350.0,1350.0 4350.0,1350.0" stroke="#ff7f0e" stroke-width="1.0" /><polyline fill="none" points="4700.0,1350.0 8700.0,1350.0" stroke="#ff7f0e" stroke-width="1.0" /><polyline fill="none" points="350.0,1250.0 350.0,1450.0" stroke="#ff7f0e" stroke-width="1.0" /><polyline fill="none" points="2500.0,1250.0 2500.0,1450.0" stroke="#ff7f0e" stroke-width="1.0" /><polyline fill="none" points="4350.0,1250.0 4350.0,1450.0" stroke="#ff7f0e" stroke-width="1.0" /><polyline fill="none" points="4700.0,1250.0 4700.0,1450.0" stroke="#ff7f0e" stroke-width="1.0" /><polyline fill="none" points="8700.0,1250.0 8700.0,1450.0" stroke="#ff7f0e" stroke-width="1.0" /><text fill="#ff7f0e" font-size="72.0px" text-anchor="middle" x="1425.0" y="1150.0">20E C/10</text><text fill="#ff7f0e" font-size="72.0px" text-anchor="middle" x="3425.0" y="1150.0">12E C/15</text><text fill="#ff7f0e" font-size="72.0px" text-anchor="middle" x="6700.0" y="1150.0">26E C/15</text><line stroke="#888" stroke-width="1" x1="0.0" x2="9050.0" y1="-200.0" y2="-200.0" /><text fill="#555" font-size="10px" x="4525.0" y="-205.0">9.05</text><line stroke="#888" stroke-width="1" x1="350.0" x2="4350.0" y1="-400.0" y2="-400.0" /><text fill="#555" font-size="10px" x="2350.0" y="-405.0">4.00</text><line stroke="#888" stroke-width="1" x1="4700.0" x2="8700.0" y1="-400.0" y2="-400.0" /><text fill="#555" font-size="10px" x="6700.0" y="-405.0">4.00</text><line stroke="#888" stroke-width="1" x1="0.0" x2="350.0" y1="-400.0" y2="-400.0" /><text fill="#555" font-size="10px" x="175.0" y="-405.0">0.35</text><line stroke="#888" stroke-width="1" x1="4350.0" x2="4700.0" y1="-400.0" y2="-400.0" /><text fill="#555" font-size="10px" x="4525.0" y="-405.0">0.35</text><line stroke="#888" stroke-width="1" x1="8700.0" x2="9050.0" y1="-400.0" y2="-400.0" /><text fill="#555" font-size="10px" x="8875.0" y="-405.0">0.35</text><line stroke="#888" stroke-width="1" x1="175.0" x2="4525.0" y1="2900.0" y2="2900.0" /><text fill="#555" font-size="10px" x="2350.0" y="2895.0">4.35</text><line stroke="#888" stroke-width="1" x1="4525.0" x2="8875.0" y1="2900.0" y2="2900.0" /><text fill="#555" font-size="10px" x="6700.0" y="2895.0">4.35</text><polyline fill="none" points="-2250.0,0.0 0.0,0.0 0.0,2700.0 -2250.0,2700.0 -2307.4025148547635,2688.581929876693 -2356.0660171779823,2656.0660171779823 -2388.581929876693,2607.4025148547635 -2400.0,2550.0 -2400.0,150.0 -2388.581929876693,92.59748514523655 -2356.0660171779823,43.93398282201788 -2307.4025148547635,11.418070123306961 -2250.0,0.0" stroke="#222222" stroke-width="0.5" /><text fill="#111111" font-size="120.0px" x="-2250.0" y="2480.0">Viga: VIGA-E3-12</text><text fill="#111111" font-size="120.0px" x="-2250.0" y="2080.0">Nivel: 3.52</text><text fill="#111111" font-size="120.0px" x="-2250.0" y="1680.0">Sección: 30 cm x 45 cm</text><text fill="#111111" font-size="120.0px" x="-2250.0" y="1280.0">Cantidad: 1 vigas</text></svg>